<svg width="348" height="160" viewBox="0 0 348 160" fill="none" xmlns="http://www.w3.org/2000/svg">
<path d="M241.296 93.4918C241.296 93.4918 222.685 92.1405 204.263 100.557C207.717 96.1921 211.099 91.3357 214.158 85.9579C229.387 59.1558 230.755 30.1324 230.755 30.1324C230.755 30.1324 207.428 44.5701 192.194 71.3719C189.954 75.3095 188.051 79.2912 186.37 83.2259C187.396 76.6451 188.071 69.583 188.071 62.1871C188.071 27.8438 173.998 0 173.998 0C173.998 0 159.93 27.8438 159.93 62.1878C159.93 69.5834 160.605 76.6457 161.631 83.2243C159.949 79.289 158.041 75.3098 155.806 71.3722C140.573 44.5705 117.245 30.1327 117.245 30.1327C117.245 30.1327 118.614 59.1561 133.843 85.9582C136.901 91.3361 140.283 96.1924 143.738 100.557C125.31 92.1405 106.704 93.4918 106.704 93.4918C106.704 93.4918 117.954 108.643 136.44 117.151C143.493 120.396 150.575 122.197 156.644 123.195C153.777 123.424 150.723 123.878 147.612 124.703C134.155 128.26 124.809 137.159 124.809 137.159C124.809 137.159 137.277 140.286 150.737 136.726C159.463 134.416 166.41 129.893 170.249 126.979L167.036 154.773C166.886 156.093 167.224 157.421 167.971 158.424C168.718 159.424 169.791 160 170.924 160H177.081C178.214 160 179.287 159.424 180.035 158.424C180.781 157.421 181.118 156.093 180.969 154.773L177.756 126.981C181.595 129.895 188.542 134.416 197.262 136.726C210.723 140.286 223.191 137.159 223.191 137.159C223.191 137.159 213.844 128.26 200.389 124.703C197.276 123.878 194.222 123.424 191.355 123.195C197.427 122.197 204.509 120.396 211.562 117.151C230.047 108.643 241.296 93.4918 241.296 93.4918Z" fill="white" fill-opacity="0.5"/>
<path d="M51.3199 14.447C51.3199 52.3702 32.7785 86.6817 6.62192 86.6817C32.7785 86.6817 51.3199 120.632 51.3199 158.916C51.3199 120.993 69.8613 86.6817 96.0179 86.6817C70.1924 86.6817 51.3199 52.3702 51.3199 14.447Z" fill="white" fill-opacity="0.5"/>
<path d="M88.7338 0C88.7338 19.1422 79.4631 36.1174 66.2192 36.1174C79.4631 36.1174 88.7338 53.0926 88.7338 72.2348C88.7338 53.0926 98.0045 36.1174 111.248 36.1174C98.0045 36.1174 88.7338 19.1422 88.7338 0Z" fill="white" fill-opacity="0.75"/>
<path d="M296.68 14.447C296.68 52.3702 315.221 86.6817 341.378 86.6817C315.221 86.6817 296.68 120.632 296.68 158.916C296.68 120.993 278.139 86.6817 251.982 86.6817C277.808 86.6817 296.68 52.3702 296.68 14.447Z" fill="white" fill-opacity="0.5"/>
<path d="M259.266 0C259.266 19.1422 268.537 36.1174 281.781 36.1174C268.537 36.1174 259.266 53.0926 259.266 72.2348C259.266 53.0926 249.996 36.1174 236.752 36.1174C249.996 36.1174 259.266 19.1422 259.266 0Z" fill="white" fill-opacity="0.75"/>
</svg>
