<svg width="87" height="40" viewBox="0 0 87 40" fill="none" xmlns="http://www.w3.org/2000/svg">
<path d="M60.324 23.373C60.324 23.373 55.6714 23.0351 51.0657 25.1392C51.9292 24.048 52.7746 22.8339 53.5395 21.4895C57.3467 14.789 57.6887 7.53309 57.6887 7.53309C57.6887 7.53309 51.8571 11.1425 48.0484 17.843C47.4886 18.8274 47.0128 19.8228 46.5924 20.8065C46.8491 19.1613 47.0177 17.3958 47.0177 15.5468C47.0177 6.96094 43.4994 0 43.4994 0C43.4994 0 39.9826 6.96094 39.9826 15.5469C39.9826 17.3958 40.1513 19.1614 40.4076 20.8061C39.9871 19.8222 39.5102 18.8275 38.9515 17.8431C35.1433 11.1426 29.3113 7.53317 29.3113 7.53317C29.3113 7.53317 29.6536 14.789 33.4607 21.4896C34.2253 22.834 35.0708 24.0481 35.9345 25.1393C31.3275 23.0351 26.676 23.373 26.676 23.373C26.676 23.373 29.4884 27.1608 34.1099 29.2877C35.8732 30.099 37.6437 30.5493 39.161 30.7988C38.4444 30.8561 37.6807 30.9694 36.9029 31.1757C33.5388 32.065 31.2022 34.2897 31.2022 34.2897C31.2022 34.2897 34.3192 35.0715 37.6843 34.1816C39.8657 33.604 41.6025 32.4731 42.5623 31.7448L41.759 38.6932C41.7215 39.0234 41.806 39.3553 41.9927 39.6059C42.1794 39.856 42.4477 39.9999 42.7311 39.9999H44.2702C44.5534 39.9999 44.8218 39.856 45.0086 39.6059C45.1953 39.3553 45.2796 39.0234 45.2423 38.6932L44.4389 31.7453C45.3989 32.4739 47.1355 33.6041 49.3156 34.1816C52.6808 35.0714 55.7977 34.2897 55.7977 34.2897C55.7977 34.2897 53.4611 32.065 50.0973 31.1757C49.3191 30.9694 48.5554 30.8561 47.8388 30.7988C49.3567 30.5493 51.1272 30.099 52.8904 29.2877C57.5118 27.1608 60.324 23.373 60.324 23.373Z" fill="white" fill-opacity="0.5"/>
<path d="M12.83 3.61172C12.83 13.0925 8.19463 21.6704 1.65548 21.6704C8.19463 21.6704 12.83 30.158 12.83 39.7291C12.83 30.2483 17.4653 21.6704 24.0045 21.6704C17.5481 21.6704 12.83 13.0925 12.83 3.61172Z" fill="white" fill-opacity="0.5"/>
<path d="M22.1834 0C22.1834 4.78555 19.8658 9.02935 16.5548 9.02935C19.8658 9.02935 22.1834 13.2731 22.1834 18.0587C22.1834 13.2731 24.5011 9.02935 27.8121 9.02935C24.5011 9.02935 22.1834 4.78555 22.1834 0Z" fill="white" fill-opacity="0.75"/>
<path d="M74.17 3.61172C74.17 13.0925 78.8054 21.6704 85.3445 21.6704C78.8054 21.6704 74.17 30.158 74.17 39.7291C74.17 30.2483 69.5347 21.6704 62.9955 21.6704C69.4519 21.6704 74.17 13.0925 74.17 3.61172Z" fill="white" fill-opacity="0.5"/>
<path d="M64.8166 0C64.8166 4.78555 67.1342 9.02935 70.4452 9.02935C67.1342 9.02935 64.8166 13.2731 64.8166 18.0587C64.8166 13.2731 62.4989 9.02935 59.1879 9.02935C62.4989 9.02935 64.8166 4.78555 64.8166 0Z" fill="white" fill-opacity="0.75"/>
</svg>
