<svg width="174" height="80" viewBox="0 0 174 80" fill="none" xmlns="http://www.w3.org/2000/svg">
<path d="M120.648 46.7459C120.648 46.7459 111.343 46.0703 102.132 50.2784C103.858 48.096 105.549 45.6679 107.079 42.9789C114.693 29.5779 115.377 15.0662 115.377 15.0662C115.377 15.0662 103.714 22.2851 96.0969 35.686C94.9771 37.6547 94.0256 39.6456 93.1849 41.613C93.6982 38.3225 94.0353 34.7915 94.0353 31.0936C94.0353 13.9219 86.9988 0 86.9988 0C86.9988 0 79.9651 13.9219 79.9651 31.0939C79.9651 34.7917 80.3025 38.3228 80.8153 41.6122C79.9743 39.6445 79.0204 37.6549 77.903 35.6861C70.2866 22.2852 58.6227 15.0663 58.6227 15.0663C58.6227 15.0663 59.3072 29.5781 66.9214 42.9791C68.4507 45.668 70.1417 48.0962 71.8689 50.2785C62.6549 46.0703 53.3521 46.7459 53.3521 46.7459C53.3521 46.7459 58.9768 54.3216 68.2199 58.5754C71.7464 60.198 75.2873 61.0987 78.3221 61.5976C76.8887 61.7122 75.3614 61.9389 73.8059 62.3515C67.0776 64.13 62.4044 68.5794 62.4044 68.5794C62.4044 68.5794 68.6384 70.1429 75.3686 68.3632C79.7315 67.208 83.2051 64.9463 85.1247 63.4896L83.518 77.3865C83.443 78.0467 83.612 78.7105 83.9854 79.2118C84.3588 79.712 84.8955 79.9998 85.4621 79.9998H88.5404C89.1069 79.9998 89.6436 79.712 90.0173 79.2118C90.3907 78.7105 90.5592 78.0467 90.4846 77.3865L88.8778 63.4907C90.7977 64.9477 94.271 67.2082 98.6312 68.3632C105.362 70.1428 111.595 68.5794 111.595 68.5794C111.595 68.5794 106.922 64.13 100.195 62.3515C98.6382 61.9389 97.1108 61.7122 95.6776 61.5976C98.7134 61.0987 102.254 60.198 105.781 58.5754C115.024 54.3216 120.648 46.7459 120.648 46.7459Z" fill="white" fill-opacity="0.5"/>
<path d="M25.66 7.22348C25.66 26.1851 16.3893 43.3409 3.31096 43.3409C16.3893 43.3409 25.66 60.316 25.66 79.4582C25.66 60.4966 34.9306 43.3409 48.0089 43.3409C35.0962 43.3409 25.66 26.1851 25.66 7.22348Z" fill="white" fill-opacity="0.5"/>
<path d="M44.3669 1.66893e-06C44.3669 9.57111 39.7315 18.0587 33.1096 18.0587C39.7315 18.0587 44.3669 26.5463 44.3669 36.1174C44.3669 26.5463 49.0022 18.0587 55.6242 18.0587C49.0022 18.0587 44.3669 9.57111 44.3669 1.66893e-06Z" fill="white" fill-opacity="0.75"/>
<path d="M148.34 7.22348C148.34 26.1851 157.611 43.3409 170.689 43.3409C157.611 43.3409 148.34 60.316 148.34 79.4582C148.34 60.4966 139.069 43.3409 125.991 43.3409C138.904 43.3409 148.34 26.1851 148.34 7.22348Z" fill="white" fill-opacity="0.5"/>
<path d="M129.633 1.66893e-06C129.633 9.57111 134.268 18.0587 140.89 18.0587C134.268 18.0587 129.633 26.5463 129.633 36.1174C129.633 26.5463 124.998 18.0587 118.376 18.0587C124.998 18.0587 129.633 9.57111 129.633 1.66893e-06Z" fill="white" fill-opacity="0.75"/>
</svg>
