<?xml version="1.0" encoding="utf-8"?>
<!-- Generator: Adobe Illustrator 25.1.0, SVG Export Plug-In . SVG Version: 6.00 Build 0)  -->
<svg version="1.1" id="Layer_1" xmlns="http://www.w3.org/2000/svg" xmlns:xlink="http://www.w3.org/1999/xlink" x="0px" y="0px"
	 viewBox="0 0 25 25" style="enable-background:new 0 0 25 25;" xml:space="preserve">
<path d="M9.5,2c0,5.7-3.1,10.8-7.5,10.8c4.4,0,7.5,5.1,7.5,10.8c0-5.7,3.1-10.8,7.5-10.8C12.6,12.8,9.5,7.7,9.5,2"/>
<path d="M18.3,12.8c0,2.9-1.6,5.4-3.7,5.4c2.2,0,3.7,2.6,3.7,5.4c0-2.8,1.6-5.4,3.7-5.4C19.9,18.2,18.3,15.6,18.3,12.8z"/>
<path d="M20,2c0,2.8-1.6,5.4-3.7,5.4c2.2,0,3.7,2.6,3.7,5.4c0-2.8,1.6-5.4,3.7-5.4C21.6,7.4,20,4.8,20,2"/>
</svg>
